<?xml version="1.0" encoding="UTF-8" standalone="no"?>
<svg
   width="1050"
   height="1050"
   viewBox="0 0 1050 1050"
   fill="none"
   stroke="currentColor"
   stroke-width="2"
   stroke-linecap="round"
   stroke-linejoin="round"
   class="feather feather-shield"
   version="1.1"
   id="svg1"
   sodipodi:docname="fediverse-security-fund.svg"
   inkscape:version="1.4 (e7c3feb1, 2024-10-09)"
   inkscape:export-filename="fediverse-security-fund.png"
   inkscape:export-xdpi="96"
   inkscape:export-ydpi="96"
   xmlns:inkscape="http://www.inkscape.org/namespaces/inkscape"
   xmlns:sodipodi="http://sodipodi.sourceforge.net/DTD/sodipodi-0.dtd"
   xmlns:xlink="http://www.w3.org/1999/xlink"
   xmlns="http://www.w3.org/2000/svg"
   xmlns:svg="http://www.w3.org/2000/svg">
  <defs
     id="defs1">
    <linearGradient
       id="linearGradient5"
       inkscape:collect="always">
      <stop
         style="stop-color:#ff0000;stop-opacity:1;"
         offset="0"
         id="stop6" />
      <stop
         style="stop-color:#ffca00;stop-opacity:1;"
         offset="0.24658385"
         id="stop8" />
      <stop
         style="stop-color:#65ea15;stop-opacity:1;"
         offset="0.5024845"
         id="stop9" />
      <stop
         style="stop-color:#00a3ff;stop-opacity:1;"
         offset="0.75388199"
         id="stop10" />
      <stop
         style="stop-color:#9500ff;stop-opacity:1;"
         offset="1"
         id="stop7" />
    </linearGradient>
    <linearGradient
       inkscape:collect="always"
       xlink:href="#linearGradient5"
       id="linearGradient7"
       x1="269.05347"
       y1="219.97485"
       x2="780.94653"
       y2="830.02521"
       gradientUnits="userSpaceOnUse"
       gradientTransform="matrix(1.0020295,0,0,1.0020295,-1.0654977,-1.0654978)" />
  </defs>
  <sodipodi:namedview
     id="namedview1"
     pagecolor="#ffffff"
     bordercolor="#000000"
     borderopacity="0.25"
     inkscape:showpageshadow="2"
     inkscape:pageopacity="0.0"
     inkscape:pagecheckerboard="0"
     inkscape:deskcolor="#d1d1d1"
     inkscape:zoom="0.75428571"
     inkscape:cx="442.14015"
     inkscape:cy="432.19697"
     inkscape:window-width="1712"
     inkscape:window-height="1011"
     inkscape:window-x="8"
     inkscape:window-y="33"
     inkscape:window-maximized="0"
     inkscape:current-layer="g15" />
  <g
     inkscape:groupmode="layer"
     id="layer3"
     inkscape:label="Shield">
    <path
       d="m 525,998.68722 c 0,0 378.94964,-189.4749 378.94964,-473.68714 V 193.41914 L 525,51.313019 146.05036,193.41914 V 525.00008 C 146.05036,809.21232 525,998.68722 525,998.68722 Z"
       id="path1"
       style="stroke:url(#linearGradient7);stroke-width:45;stroke-dasharray:none;fill:#ffffff;fill-opacity:1" />
  </g>
  <g
     inkscape:groupmode="layer"
     id="layer1"
     inkscape:label="Fediverse Logo"
     style="display:inline">
    <g
       id="g15"
       transform="matrix(3.7795276,0,0,3.7795276,140.17587,106.65125)"
       style="stroke:#ffffff;stroke-width:1.05833;stroke-dasharray:none;stroke-opacity:1">
      <path
         fill="#a730b8"
         d="m 47.9242,72.7966 a 18.2278,18.2278 0 0 1 -7.7959,7.7597 l 42.7984,42.9653 10.3182,-5.2291 z m 56.4524,56.6704 -10.3182,5.2291 21.686,21.7708 a 18.2278,18.2278 0 0 1 7.7975,-7.7608 z"
         id="path1-0"
         style="stroke:#ffffff;stroke-width:1.05833;stroke-dasharray:none;stroke-opacity:1" />
      <path
         fill="#5496be"
         d="m 129.6645,102.0765 1.7865,11.4272 27.4149,-13.8942 a 18.2278,18.2278 0 0 1 -4.9719,-9.8124 z m -14.0658,7.1282 -57.2891,29.0339 a 18.2278,18.2278 0 0 1 4.9728,9.8133 l 54.1027,-27.4194 z"
         id="path2"
         style="stroke:#ffffff;stroke-width:1.05833;stroke-dasharray:none;stroke-opacity:1" />
      <path
         fill="#ce3d1a"
         d="m 69.5312,91.6539 8.1618,8.1933 29.269,-57.1387 a 18.2278,18.2278 0 0 1 -9.787,-5.0219 z m -7.1897,14.0363 -14.0022,27.3353 a 18.2278,18.2278 0 0 1 9.786,5.0214 L 70.5028,113.883 Z"
         id="path3"
         style="stroke:#ffffff;stroke-width:1.05833;stroke-dasharray:none;stroke-opacity:1" />
      <path
         fill="#d0188f"
         d="m 39.8906,80.6763 a 18.2278,18.2278 0 0 1 -10.8655,1.7198 l 8.1762,52.2981 a 18.2278,18.2278 0 0 1 10.8645,-1.7198 z"
         id="path4"
         style="stroke:#ffffff;stroke-width:1.05833;stroke-dasharray:none;stroke-opacity:1" />
      <path
         fill="#5b36e9"
         d="m 63.3259,148.3109 a 18.2278,18.2278 0 0 1 -1.7322,10.8629 l 52.2893,8.3907 a 18.2278,18.2278 0 0 1 1.7322,-10.8629 z"
         id="path5"
         style="stroke:#ffffff;stroke-width:1.05833;stroke-dasharray:none;stroke-opacity:1" />
      <path
         fill="#30b873"
         d="m 134.9148,146.9182 a 18.2278,18.2278 0 0 1 9.788,5.0224 l 24.1345,-47.117 a 18.2278,18.2278 0 0 1 -9.7875,-5.0229 z"
         id="path6"
         style="stroke:#ffffff;stroke-width:1.05833;stroke-dasharray:none;stroke-opacity:1" />
      <path
         fill="#ebe305"
         d="m 126.1329,33.1603 a 18.2278,18.2278 0 0 1 -7.7975,7.7608 l 37.3765,37.5207 a 18.2278,18.2278 0 0 1 7.7969,-7.7608 z"
         id="path7"
         style="stroke:#ffffff;stroke-width:1.05833;stroke-dasharray:none;stroke-opacity:1" />
      <path
         fill="#f47601"
         d="m 44.7704,51.6279 a 18.2278,18.2278 0 0 1 4.9723,9.8123 L 96.9905,37.4949 a 18.2278,18.2278 0 0 1 -4.9718,-9.8113 z"
         id="path8"
         style="stroke:#ffffff;stroke-width:1.05833;stroke-dasharray:none;stroke-opacity:1" />
      <path
         fill="#57c115"
         d="m 118.2491,40.9645 a 18.2278,18.2278 0 0 1 -10.8511,1.8123 l 4.1853,26.8 11.42,1.8324 z m -4.2333,44.1927 9.8955,63.3631 a 18.2278,18.2278 0 0 1 10.88,-1.6278 l -9.355,-59.9035 z"
         id="path9"
         style="stroke:#ffffff;stroke-width:1.05833;stroke-dasharray:none;stroke-opacity:1" />
      <path
         fill="#dbb210"
         d="m 49.7763,61.6412 a 18.2278,18.2278 0 0 1 -1.694,10.8686 l 26.8206,4.3077 5.2715,-10.2945 z m 45.9677,7.382 -5.272,10.2955 63.3713,10.1777 a 18.2278,18.2278 0 0 1 1.7606,-10.8593 z"
         id="path10"
         style="stroke:#ffffff;stroke-width:1.05833;stroke-dasharray:none;stroke-opacity:1" />
      <path
         fill="#ffca00"
         d="m 93.4385,23.8419 a 16.570727,16.570727 0 1 0 33.0924,1.8025 16.570727,16.570727 0 1 0 -33.0924,-1.8025"
         id="path11"
         style="stroke:#ffffff;stroke-width:1.05833;stroke-dasharray:none;stroke-opacity:1" />
      <path
         fill="#64ff00"
         d="M 155.314,85.957 A 16.570677,16.570677 0 1 0 188.4063,87.7595 16.570677,16.570677 0 1 0 155.314,85.957"
         id="path12"
         style="stroke:#ffffff;stroke-width:1.05833;stroke-dasharray:none;stroke-opacity:1;fill:#65ea15;fill-opacity:1" />
      <path
         fill="#00a3ff"
         d="m 115.3466,163.9824 a 16.570677,16.570677 0 1 0 33.0923,1.8025 16.570677,16.570677 0 1 0 -33.0923,-1.8025"
         id="path13"
         style="stroke:#ffffff;stroke-width:1.05833;stroke-dasharray:none;stroke-opacity:1" />
      <path
         fill="#9500ff"
         d="m 28.7698,150.0898 a 16.570677,16.570677 0 1 0 33.0923,1.8025 16.570677,16.570677 0 1 0 -33.0923,-1.8025"
         id="path14"
         style="stroke:#ffffff;stroke-width:1.05833;stroke-dasharray:none;stroke-opacity:1" />
      <path
         fill="#ff0000"
         d="M 15.2298,63.4781 A 16.570677,16.570677 0 1 0 48.3221,65.2806 16.570677,16.570677 0 1 0 15.2298,63.4781"
         id="path15"
         style="stroke:#ffffff;stroke-width:1.05833;stroke-dasharray:none;stroke-opacity:1" />
    </g>
  </g>
</svg>
