<?xml version="1.0" encoding="UTF-8" standalone="no"?>
<!-- Created with Inkscape (http://www.inkscape.org/) -->

<svg
   version="1.1"
   id="svg167"
   width="533.33331"
   height="533.33331"
   viewBox="0 0 533.33331 533.33331"
   sodipodi:docname="logo.svg"
   inkscape:version="1.2.2 (b0a8486541, 2022-12-01, custom)"
   xmlns:inkscape="http://www.inkscape.org/namespaces/inkscape"
   xmlns:sodipodi="http://sodipodi.sourceforge.net/DTD/sodipodi-0.dtd"
   xmlns="http://www.w3.org/2000/svg"
   xmlns:svg="http://www.w3.org/2000/svg">
  <defs
     id="defs171">
    <clipPath
       clipPathUnits="userSpaceOnUse"
       id="clipPath189">
      <path
         d="m 2556.39,2594.57 c -77.55,77.56 -480.44,479.23 -558,556.79 -147.8,121.71 13.58,286.79 0,453.24 182.17,-181.01 361.1,-357.18 543.26,-538.2 181.51,-164.24 160.84,-320.51 14.74,-471.83 z"
         clip-rule="evenodd"
         id="path187" />
    </clipPath>
    <linearGradient
       x1="207.00301"
       y1="738.84601"
       x2="369.62201"
       y2="589.50598"
       gradientUnits="userSpaceOnUse"
       gradientTransform="matrix(10,0,0,10,-250,-3900)"
       spreadMethod="pad"
       id="linearGradient195">
      <stop
         style="stop-opacity:1;stop-color:#1b1d35"
         offset="0"
         id="stop191" />
      <stop
         style="stop-opacity:1;stop-color:#71d0d9"
         offset="1"
         id="stop193" />
    </linearGradient>
    <clipPath
       clipPathUnits="userSpaceOnUse"
       id="clipPath205">
      <path
         d="m 2033.58,1721.81 c 155.93,206.85 114.74,347.03 6.85,446.35 l -282.61,285.82 c -126.94,127.76 -100.82,341.76 12.34,462.28 77.56,77.55 150.68,157.54 228.23,235.1 147.81,121.71 164.25,299.73 0,453.24 l -435.66,-437.28 c -303.39,-304.51 -288.68,-681.33 -48.5,-922.98 175.4,-176.46 343.95,-346.06 519.35,-522.53 z m 1.49,686.63 138.19,138.19 c 76.01,76.01 76.01,200.37 0,276.38 l -138.19,138.19 -138.19,-138.19 c -76.01,-76.01 -76.01,-200.37 0,-276.38 z"
         clip-rule="evenodd"
         id="path203" />
    </clipPath>
  </defs>
  <sodipodi:namedview
     id="namedview169"
     pagecolor="#ffffff"
     bordercolor="#000000"
     borderopacity="0.25"
     inkscape:showpageshadow="2"
     inkscape:pageopacity="0.0"
     inkscape:pagecheckerboard="0"
     inkscape:deskcolor="#d1d1d1"
     showgrid="false"
     inkscape:zoom="3.6069861"
     inkscape:cx="208.62293"
     inkscape:cy="415.16656"
     inkscape:window-width="1846"
     inkscape:window-height="1136"
     inkscape:window-x="0"
     inkscape:window-y="0"
     inkscape:window-maximized="1"
     inkscape:current-layer="g177">
    <inkscape:page
       x="0"
       y="0"
       id="page173"
       width="533.33331"
       height="533.33331" />
  </sodipodi:namedview>
  <g
     id="g175"
     inkscape:groupmode="layer"
     inkscape:label="Page 1"
     transform="matrix(1.3333333,0,0,-1.3333333,0,533.33333)">
    <g
       id="g177"
       transform="scale(0.1)">
      <path
         d="M 520.41,794.824 V 1370.83 H 395.336 V 1016.18 L 125.434,1370.83 H 8.58594 V 794.824 H 133.664 V 1161 L 412.617,794.824 Z m 325.973,0 V 1370.83 H 719.66 V 794.824 Z M 1573.91,1370.83 H 1437.32 L 1286.73,965.16 1136.15,1370.83 H 996.262 L 1229.14,790.711 h 111.9 z m 582.71,-576.006 v 112.735 h -312.69 v 120.961 h 271.55 v 112.73 h -271.55 v 116.85 h 308.58 v 112.73 H 1718.04 V 794.824 Z m 679.81,0 v 576.006 h -125.07 v -354.65 l -269.91,354.65 H 2324.61 V 794.824 h 125.07 V 1161 l 278.95,-366.176 z m 607.39,0 V 910.027 H 3156.64 V 1370.83 H 3029.92 V 794.824 Z m 553.91,576.006 h -144 l -139.89,-231.22 -137.42,231.22 H 3428.3 l 221.36,-348.89 V 794.824 h 126.72 v 229.586 l 221.35,346.42"
         style="fill:#ffffff;fill-opacity:1;fill-rule:evenodd;stroke:none"
         id="path179" />
      <path
         d="M 823.238,680.934 H 620.371 V 398.609 H 652.23 V 521.621 H 805.09 V 550.66 H 652.23 V 651.492 H 823.238 Z M 1154.37,540.176 c 0,78.242 -57.68,145.597 -143.59,145.597 -85.905,0 -144.385,-68.16 -144.385,-146.406 0,-78.242 57.675,-145.597 143.585,-145.597 85.9,0 144.39,68.16 144.39,146.406 z m -33.08,-0.809 c 0,-64.531 -45.98,-116.156 -110.51,-116.156 -64.53,0 -111.315,52.434 -111.315,116.965 0,64.531 45.98,116.156 110.515,116.156 64.53,0 111.31,-52.43 111.31,-116.965 z m 331.13,141.567 h -31.87 V 516.785 c 0,-61.711 -33.07,-93.172 -85.1,-93.172 -54.04,0 -86.31,34.285 -86.31,95.188 v 162.133 h -31.85 V 516.785 c 0,-79.859 47.59,-122.609 117.36,-122.609 70.58,0 117.77,42.75 117.77,125.027 z m 283.13,-226.262 -177.87,226.262 h -29.84 V 398.609 h 31.05 V 630.117 L 1741.2,398.609 h 25.41 v 282.325 h -31.06 z m 358.95,85.504 c 0,79.855 -61.3,140.758 -150.04,140.758 h -98 V 398.609 h 98 c 88.74,0 150.04,61.707 150.04,141.567 z m -33.07,-0.809 c 0,-62.918 -45.57,-111.312 -116.97,-111.312 h -66.14 v 223.437 h 66.14 c 71.4,0 116.97,-49.207 116.97,-112.125 z m 216.18,143.582 h -29.84 l -128.66,-284.34 h 32.67 l 33.47,74.614 h 153.67 l 33.07,-74.614 h 34.28 z m 48.8,-181.09 h -128.66 l 64.54,143.985 z m 206.1,149.633 h 94.78 v 29.442 h -221.83 v -29.442 h 94.78 V 398.609 h 32.27 z m 157.29,29.442 V 398.609 h 31.86 v 282.325 z m 390.01,-140.758 c 0,78.242 -57.67,145.597 -143.58,145.597 -85.91,0 -144.39,-68.16 -144.39,-146.406 0,-78.242 57.68,-145.597 143.59,-145.597 85.9,0 144.38,68.16 144.38,146.406 z m -33.07,-0.809 c 0,-64.531 -45.98,-116.156 -110.51,-116.156 -64.53,0 -111.32,52.434 -111.32,116.965 0,64.531 45.98,116.156 110.52,116.156 64.53,0 111.31,-52.43 111.31,-116.965 z m 308.14,-84.695 -177.87,226.262 h -29.84 V 398.609 h 31.05 v 231.508 l 182.3,-231.508 h 25.41 v 282.325 h -31.05 V 454.672"
         style="fill:#ffffff;fill-opacity:1;fill-rule:evenodd;stroke:none"
         id="path181" />
      <g
         id="g183">
        <g
           id="g185"
           clip-path="url(#clipPath189)">
          <path
             d="m 2556.39,2594.57 c -77.55,77.56 -480.44,479.23 -558,556.79 -147.8,121.71 13.58,286.79 0,453.24 182.17,-181.01 361.1,-357.18 543.26,-538.2 181.51,-164.24 160.84,-320.51 14.74,-471.83"
             style="fill:url(#linearGradient195);fill-opacity:1;fill-rule:nonzero;stroke:none"
             id="path197" />
        </g>
      </g>
      <g
         id="g199">
        <g
           id="g201"
           clip-path="url(#clipPath205)">
          <path
             d="M 2139.12,3623.76 2391.6,1770.55 1390.11,1634.2 l -252.49,1853.21 1001.5,136.35"
             style="fill:#f2521b;fill-opacity:1;fill-rule:evenodd;stroke:none"
             id="path207" />
          <path
             d="m 1747.8,3588.35 c -385.46,-52.48 -744.52,246.94 -801.995,668.77 -57.469,421.83 208.415,806.34 593.875,858.82 385.46,52.48 744.53,-246.94 802,-668.77 57.47,-421.83 -208.41,-806.34 -593.88,-858.82 z m 3.9,-28.64 c 399.92,54.45 675.78,453.37 616.16,891.02 -59.63,437.65 -432.16,748.3 -832.08,693.85 C 1135.86,5090.13 860.004,4691.2 919.633,4253.55 979.258,3815.9 1351.79,3505.26 1751.7,3559.71"
             style="fill:#f0bd16;fill-opacity:1;fill-rule:evenodd;stroke:none"
             id="path209" />
          <path
             d="m 1750.41,3569.25 c -395.1,-53.79 -763.148,253.12 -822.055,685.49 -58.91,432.38 213.625,826.5 608.725,880.29 395.1,53.79 763.14,-253.11 822.05,-685.49 58.91,-432.38 -213.63,-826.49 -608.72,-880.29 z m 3.9,-28.64 c 409.55,55.77 692.06,464.3 630.99,912.5 -61.06,448.19 -442.57,766.32 -852.12,710.56 -409.55,-55.76 -692.059,-464.29 -630.996,-912.49 61.062,-448.2 442.566,-766.33 852.126,-710.57"
             style="fill:#efbc16;fill-opacity:1;fill-rule:evenodd;stroke:none"
             id="path211" />
          <path
             d="m 1753.01,3550.16 c -404.74,-55.11 -781.756,259.28 -842.104,702.21 -60.343,442.92 218.834,846.65 623.574,901.76 404.73,55.1 781.75,-259.29 842.1,-702.21 60.35,-442.92 -218.84,-846.66 -623.57,-901.76 z m 3.9,-28.64 c 419.19,57.07 708.34,475.22 645.84,933.96 -62.5,458.74 -452.98,784.36 -872.17,727.29 -419.19,-57.07 -708.346,-475.23 -645.846,-933.97 62.5,-458.74 452.986,-784.35 872.176,-727.28"
             style="fill:#efbb15;fill-opacity:1;fill-rule:evenodd;stroke:none"
             id="path213" />
          <path
             d="m 1755.61,3531.07 c -414.37,-56.42 -800.368,265.45 -862.149,718.92 -61.781,453.47 224.049,866.81 638.419,923.23 414.37,56.42 800.37,-265.46 862.15,-718.93 61.78,-453.46 -224.05,-866.81 -638.42,-923.22 z m 3.9,-28.65 c 428.83,58.39 724.63,486.15 660.69,955.44 -63.94,469.29 -463.4,802.39 -892.22,744 -428.83,-58.38 -724.632,-486.15 -660.695,-955.43 63.938,-469.29 463.405,-802.39 892.225,-744.01"
             style="fill:#efb915;fill-opacity:1;fill-rule:evenodd;stroke:none"
             id="path215" />
          <path
             d="m 1758.21,3511.97 c -424.01,-57.73 -818.98,271.63 -882.198,735.65 -63.223,464.01 229.258,886.97 653.268,944.7 424,57.72 818.98,-271.64 882.19,-735.65 63.22,-464.01 -229.26,-886.97 -653.26,-944.7 z m 3.9,-28.64 c 438.46,59.7 740.91,497.07 675.54,976.9 -65.38,479.84 -473.81,820.43 -912.28,760.73 -438.46,-59.7 -740.905,-497.07 -675.534,-976.91 65.375,-479.83 473.814,-820.42 912.274,-760.72"
             style="fill:#efb815;fill-opacity:1;fill-rule:evenodd;stroke:none"
             id="path217" />
          <path
             d="m 1760.81,3492.88 c -433.64,-59.04 -837.591,277.8 -902.247,752.36 -64.657,474.56 234.467,907.13 668.107,966.17 433.65,59.04 837.6,-277.8 902.26,-752.37 64.65,-474.56 -234.48,-907.13 -668.12,-966.16 z m 3.9,-28.65 c 448.1,61.01 757.2,508 690.39,998.38 -66.81,490.38 -484.23,838.45 -932.33,777.44 -448.09,-61.01 -757.192,-508 -690.379,-998.37 66.808,-490.38 484.219,-838.46 932.319,-777.45"
             style="fill:#efb716;fill-opacity:1;fill-rule:evenodd;stroke:none"
             id="path219" />
          <path
             d="m 1763.41,3473.78 c -443.28,-60.35 -856.207,283.98 -922.297,769.08 -66.09,485.11 239.677,927.29 682.957,987.64 443.28,60.36 856.21,-283.97 922.3,-769.08 66.09,-485.1 -239.67,-927.29 -682.96,-987.64 z m 3.91,-28.64 c 457.73,62.32 773.47,518.92 705.22,1019.84 -68.24,500.93 -494.64,856.49 -952.37,794.17 -457.74,-62.33 -773.479,-518.93 -705.229,-1019.85 68.247,-500.92 494.639,-856.48 952.379,-794.16"
             style="fill:#f0b616;fill-opacity:1;fill-rule:evenodd;stroke:none"
             id="path221" />
          <path
             d="m 1766.02,3454.69 c -452.92,-61.67 -874.825,290.15 -942.356,785.8 -67.527,495.65 244.886,947.44 697.806,1009.11 452.92,61.67 874.82,-290.15 942.35,-785.8 67.53,-495.66 -244.89,-947.45 -697.8,-1009.11 z m 3.9,-28.65 c 467.37,63.64 789.76,529.85 720.07,1041.32 -69.68,511.47 -505.05,874.52 -972.42,810.88 C 1050.2,5214.61 727.809,4748.4 797.492,4236.93 867.176,3725.45 1302.55,3362.41 1769.92,3426.04"
             style="fill:#f0b416;fill-opacity:1;fill-rule:evenodd;stroke:none"
             id="path223" />
          <path
             d="m 1768.62,3435.59 c -462.56,-62.98 -893.44,296.32 -962.401,802.52 -68.969,506.2 250.101,967.61 712.651,1030.59 462.55,62.97 893.43,-296.33 962.4,-802.53 68.96,-506.2 -250.1,-967.6 -712.65,-1030.58 z m 3.9,-28.64 c 477.01,64.94 806.04,540.77 734.92,1062.79 -71.12,522.01 -515.46,892.54 -992.48,827.6 -477,-64.95 -806.034,-540.77 -734.913,-1062.79 71.117,-522.02 515.463,-892.55 992.473,-827.6"
             style="fill:#f0b416;fill-opacity:1;fill-rule:evenodd;stroke:none"
             id="path225" />
          <path
             d="m 1771.22,3416.5 c -472.19,-64.29 -912.048,302.5 -982.454,819.24 -70.399,516.74 255.314,987.76 727.504,1052.05 472.19,64.29 912.05,-302.5 982.44,-819.24 70.41,-516.75 -255.3,-987.76 -727.49,-1052.05 z m 3.9,-28.64 c 486.65,66.25 822.33,551.69 749.77,1084.25 -72.56,532.57 -525.88,910.58 -1012.52,844.32 -486.65,-66.25 -822.331,-551.7 -749.776,-1084.26 72.558,-532.56 525.886,-910.57 1012.526,-844.31"
             style="fill:#f0b215;fill-opacity:1;fill-rule:evenodd;stroke:none"
             id="path227" />
          <path
             d="m 1773.82,3397.4 c -481.83,-65.6 -930.66,308.67 -1002.5,835.96 -71.84,527.29 260.52,1007.93 742.34,1073.52 481.83,65.61 930.67,-308.67 1002.51,-835.95 C 2588,3943.64 2255.64,3463 1773.82,3397.4 Z m 3.9,-28.64 c 496.28,67.57 838.62,562.62 764.62,1105.73 -74,543.1 -536.29,928.6 -1032.57,861.04 C 1013.48,5267.96 671.152,4772.91 745.148,4229.8 819.141,3686.69 1281.44,3301.19 1777.72,3368.76"
             style="fill:#f0b115;fill-opacity:1;fill-rule:evenodd;stroke:none"
             id="path229" />
          <path
             d="m 1776.42,3378.31 c -491.46,-66.92 -949.272,314.84 -1022.549,852.67 -73.277,537.84 265.739,1028.09 757.199,1095 491.46,66.91 949.27,-314.85 1022.54,-852.68 73.28,-537.84 -265.73,-1028.08 -757.19,-1094.99 z m 3.9,-28.65 c 505.92,68.89 854.9,573.55 779.47,1127.2 -75.43,553.66 -546.71,946.64 -1052.63,877.76 -505.91,-68.88 -854.89,-573.54 -779.461,-1127.2 75.43,-553.65 546.711,-946.63 1052.621,-877.76"
             style="fill:#f0af16;fill-opacity:1;fill-rule:evenodd;stroke:none"
             id="path231" />
          <path
             d="m 1779.02,3359.21 c -501.1,-68.23 -967.883,321.02 -1042.598,869.4 -74.711,548.38 270.938,1048.24 772.038,1116.46 501.1,68.23 967.89,-321.01 1042.6,-869.39 74.72,-548.39 -270.94,-1048.24 -772.04,-1116.47 z m 3.91,-28.64 c 515.55,70.19 871.17,584.47 794.3,1148.67 -76.86,564.2 -557.12,964.67 -1072.67,894.48 -515.552,-70.2 -871.177,-584.47 -794.31,-1148.67 76.867,-564.2 557.12,-964.67 1072.68,-894.48"
             style="fill:#efaf16;fill-opacity:1;fill-rule:evenodd;stroke:none"
             id="path233" />
          <path
             d="m 1781.63,3340.12 c -510.74,-69.54 -986.509,327.19 -1062.653,886.11 -76.153,558.93 276.148,1068.4 786.883,1137.94 510.74,69.54 986.5,-327.19 1062.65,-886.12 76.15,-558.92 -276.15,-1068.4 -786.88,-1137.93 z m 3.89,-28.64 c 525.2,71.5 887.47,595.39 809.16,1170.13 -78.3,574.75 -567.53,982.71 -1092.72,911.2 -525.19,-71.5 -887.464,-595.39 -809.155,-1170.14 78.304,-574.74 567.535,-982.7 1092.715,-911.19"
             style="fill:#f0ad16;fill-opacity:1;fill-rule:evenodd;stroke:none"
             id="path235" />
          <path
             d="m 1784.22,3321.02 c -520.36,-70.85 -1005.107,333.37 -1082.693,902.84 -77.586,569.47 281.364,1088.55 801.733,1159.41 520.37,70.84 1005.12,-333.37 1082.7,-902.84 77.59,-569.48 -281.36,-1088.56 -801.74,-1159.41 z m 3.91,-28.64 c 534.82,72.82 903.75,606.32 824,1191.61 -79.74,585.29 -577.94,1000.73 -1112.77,927.92 C 964.531,5339.09 595.613,4805.59 675.352,4220.3 755.094,3635 1253.3,3219.56 1788.13,3292.38"
             style="fill:#f0ac16;fill-opacity:1;fill-rule:evenodd;stroke:none"
             id="path237" />
          <path
             d="m 1786.83,3301.93 c -530.01,-72.16 -1023.732,339.53 -1102.752,919.55 -79.023,580.02 286.57,1108.72 816.582,1180.88 530.01,72.16 1023.72,-339.54 1102.75,-919.56 79.02,-580.01 -286.57,-1108.71 -816.58,-1180.87 z m 3.9,-28.64 c 544.46,74.12 920.03,617.24 838.85,1213.07 C 2548.4,5082.2 2041.22,5505.13 1496.76,5431 952.293,5356.87 576.727,4813.76 657.906,4217.92 739.086,3622.09 1246.27,3199.16 1790.73,3273.29"
             style="fill:#f0ab16;fill-opacity:1;fill-rule:evenodd;stroke:none"
             id="path239" />
          <path
             d="m 1789.43,3282.83 c -539.65,-73.47 -1042.34,345.71 -1122.801,936.28 -80.461,590.56 291.785,1128.87 831.431,1202.34 539.64,73.48 1042.34,-345.71 1122.8,-936.27 80.46,-590.57 -291.79,-1128.88 -831.43,-1202.35 z m 3.9,-28.64 c 554.1,75.44 936.31,628.17 853.7,1234.55 -82.62,606.39 -598.78,1036.8 -1152.87,961.36 C 940.055,5374.66 557.844,4821.93 640.457,4215.55 723.07,3609.16 1239.23,3178.75 1793.33,3254.19"
             style="fill:#f0aa16;fill-opacity:1;fill-rule:evenodd;stroke:none"
             id="path241" />
          <path
             d="m 1792.03,3263.74 c -549.28,-74.79 -1060.952,351.89 -1142.85,952.99 -81.895,601.11 296.996,1149.03 846.28,1223.82 549.28,74.78 1060.95,-351.89 1142.84,-953 81.9,-601.11 -296.99,-1149.03 -846.27,-1223.81 z m 3.9,-28.65 c 563.74,76.76 952.6,639.1 868.55,1256.03 -84.05,616.93 -609.19,1054.83 -1172.93,978.07 C 927.816,5392.44 538.957,4830.1 623.008,4213.17 707.059,3596.24 1232.2,3158.34 1795.93,3235.09"
             style="fill:#f0a816;fill-opacity:1;fill-rule:evenodd;stroke:none"
             id="path243" />
          <path
             d="m 1794.63,3244.64 c -558.92,-76.09 -1079.564,358.06 -1162.896,969.72 -83.336,611.65 302.2,1169.19 861.126,1245.28 558.91,76.1 1079.56,-358.05 1162.89,-969.71 83.34,-611.66 -302.2,-1169.19 -861.12,-1245.29 z m 3.91,-28.64 c 573.37,78.07 968.87,650.02 883.39,1277.49 -85.49,627.47 -619.61,1072.86 -1192.98,994.8 C 915.582,5410.22 520.07,4838.27 605.559,4210.79 691.047,3583.32 1225.16,3137.93 1798.54,3216"
             style="fill:#f0a716;fill-opacity:1;fill-rule:evenodd;stroke:none"
             id="path245" />
          <path
             d="m 1797.23,3225.55 c -568.55,-77.41 -1098.175,364.23 -1182.945,986.43 -84.773,622.2 307.414,1189.35 875.965,1266.76 568.56,77.4 1098.18,-364.24 1182.95,-986.44 84.77,-622.19 -307.41,-1189.34 -875.97,-1266.75 z m 3.91,-28.65 c 583,79.38 985.16,660.95 898.24,1298.97 -86.93,638.02 -630.02,1090.89 -1213.03,1011.51 C 903.34,5428 501.188,4846.44 588.109,4208.42 675.035,3570.4 1218.13,3117.53 1801.14,3196.9"
             style="fill:#f0a616;fill-opacity:1;fill-rule:evenodd;stroke:none"
             id="path247" />
          <path
             d="m 1799.84,3206.45 c -578.2,-78.72 -1116.797,370.41 -1203.004,1003.16 -86.207,632.75 312.625,1209.5 890.814,1288.22 578.19,78.72 1116.79,-370.4 1203,-1003.15 86.21,-632.75 -312.62,-1209.5 -890.81,-1288.23 z m 3.9,-28.64 c 592.64,80.69 1001.44,671.87 913.08,1320.44 -88.36,648.56 -640.43,1108.91 -1233.07,1028.23 C 891.105,5445.79 482.301,4854.61 570.664,4206.04 659.027,3557.48 1211.09,3097.12 1803.74,3177.81"
             style="fill:#f1a516;fill-opacity:1;fill-rule:evenodd;stroke:none"
             id="path249" />
          <path
             d="m 1802.44,3187.36 c -587.83,-80.04 -1135.409,376.58 -1223.053,1019.87 -87.645,643.29 317.836,1229.66 905.663,1309.7 587.83,80.03 1135.41,-376.58 1223.05,-1019.87 87.64,-643.3 -317.84,-1229.67 -905.66,-1309.7 z m 3.9,-28.65 c 602.28,82 1017.73,682.8 927.93,1341.91 -89.8,659.11 -650.84,1126.95 -1253.12,1044.95 C 878.867,5463.57 463.414,4862.78 553.215,4203.66 643.012,3544.55 1204.06,3076.71 1806.34,3158.71"
             style="fill:#f0a316;fill-opacity:1;fill-rule:evenodd;stroke:none"
             id="path251" />
          <path
             d="m 1805.04,3168.26 c -597.47,-81.34 -1154.02,382.76 -1243.102,1036.59 -89.083,653.84 323.046,1249.83 920.512,1331.17 597.46,81.35 1154.01,-382.75 1243.1,-1036.59 89.08,-653.84 -323.05,-1249.82 -920.51,-1331.17 z m 3.9,-28.64 c 611.92,83.31 1034.02,693.72 942.78,1363.38 -91.24,669.65 -661.26,1144.98 -1273.17,1061.66 C 866.625,5481.35 444.531,4870.95 535.766,4201.29 627.004,3531.63 1197.02,3056.31 1808.94,3139.62"
             style="fill:#f0a316;fill-opacity:1;fill-rule:evenodd;stroke:none"
             id="path253" />
          <path
             d="m 1807.64,3149.17 c -607.1,-82.66 -1172.632,388.92 -1263.152,1053.31 -90.515,664.38 328.258,1269.98 935.362,1352.64 607.1,82.65 1172.63,-388.93 1263.15,-1053.31 90.51,-664.39 -328.26,-1269.98 -935.36,-1352.64 z m 3.9,-28.64 c 621.56,84.62 1050.3,704.64 957.63,1384.84 C 2676.5,5185.57 2097.5,5668.38 1475.95,5583.76 854.391,5499.14 425.645,4879.12 518.316,4198.91 610.988,3518.71 1189.98,3035.9 1811.54,3120.53"
             style="fill:#f0a116;fill-opacity:1;fill-rule:evenodd;stroke:none"
             id="path255" />
          <path
             d="M 1810.24,3130.07 C 1193.5,3046.11 618.996,3525.17 527.043,4200.1 c -91.953,674.94 333.465,1290.14 950.207,1374.11 616.73,83.97 1191.24,-395.1 1283.2,-1070.03 91.95,-674.93 -333.47,-1290.14 -950.21,-1374.11 z m 3.9,-28.64 c 631.2,85.94 1066.59,715.57 972.48,1406.32 C 2692.51,5198.5 2104.54,5688.79 1473.34,5602.86 842.152,5516.92 406.758,4887.29 500.871,4196.54 594.977,3505.79 1182.95,3015.49 1814.14,3101.43"
             style="fill:#f0a016;fill-opacity:1;fill-rule:evenodd;stroke:none"
             id="path257" />
          <path
             d="M 1812.84,3110.98 C 1186.47,3025.7 602.984,3512.25 509.594,4197.73 c -93.391,685.47 338.676,1310.3 965.046,1395.58 626.38,85.28 1209.86,-401.27 1303.25,-1086.75 93.39,-685.48 -338.68,-1310.3 -965.05,-1395.58 z m 3.9,-28.64 c 640.83,87.25 1082.87,726.49 987.33,1427.78 -95.55,701.29 -692.5,1199.08 -1333.33,1111.83 C 829.914,5534.7 387.875,4895.46 483.418,4194.16 578.965,3492.87 1175.91,2995.09 1816.74,3082.34"
             style="fill:#f09e16;fill-opacity:1;fill-rule:evenodd;stroke:none"
             id="path259" />
          <path
             d="M 1815.45,3091.88 C 1179.43,3005.29 586.973,3499.33 492.145,4195.35 397.316,4891.38 836.031,5525.81 1472.04,5612.4 2108.05,5699 2700.52,5204.96 2795.34,4508.93 2890.17,3812.91 2451.45,3178.48 1815.45,3091.88 Z m 3.89,-28.64 C 2469.81,3151.8 2918.5,3800.66 2821.52,4512.5 2724.53,5224.34 2118.61,5729.61 1468.14,5641.04 817.676,5552.48 368.992,4903.63 465.973,4191.79 562.953,3479.95 1168.88,2974.68 1819.34,3063.24"
             style="fill:#f09e16;fill-opacity:1;fill-rule:evenodd;stroke:none"
             id="path261" />
          <path
             d="M 1818.04,3072.79 C 1172.4,2984.88 570.961,3486.41 474.695,4192.98 c -96.261,706.56 349.102,1350.61 994.745,1438.52 645.65,87.9 1247.08,-413.62 1343.35,-1120.19 96.26,-706.57 -349.1,-1350.61 -994.75,-1438.52 z m 3.91,-28.64 c 660.1,89.87 1115.43,748.33 1017.01,1470.72 -98.42,722.39 -713.32,1235.14 -1373.42,1145.27 C 805.438,5570.27 350.102,4911.8 448.523,4189.41 546.945,3467.03 1161.85,2954.27 1821.95,3044.15"
             style="fill:#f09c16;fill-opacity:1;fill-rule:evenodd;stroke:none"
             id="path263" />
          <path
             d="m 1820.65,3053.7 c -655.29,-89.22 -1265.701,419.78 -1363.404,1136.9 -97.699,717.11 354.309,1370.78 1009.594,1459.99 655.28,89.22 1265.7,-419.79 1363.4,-1136.91 97.7,-717.11 -354.31,-1370.77 -1009.59,-1459.98 z m 3.9,-28.65 c 669.74,91.19 1131.72,759.27 1031.86,1492.2 -99.86,732.93 -723.73,1253.17 -1393.47,1161.98 C 793.199,5588.05 331.219,4919.97 431.074,4187.04 530.93,3454.11 1154.81,2933.87 1824.55,3025.05"
             style="fill:#f19b16;fill-opacity:1;fill-rule:evenodd;stroke:none"
             id="path265" />
          <path
             d="M 1823.25,3034.6 C 1158.33,2944.07 538.938,3460.57 439.801,4188.23 340.66,4915.89 799.316,5579.16 1464.24,5669.68 2129.16,5760.21 2748.55,5243.72 2847.69,4516.06 2946.82,3788.4 2488.17,3125.13 1823.25,3034.6 Z m 3.9,-28.64 c 679.38,92.49 1148,770.19 1046.71,1513.67 -101.29,743.47 -734.15,1271.2 -1413.52,1178.7 C 780.961,5605.83 312.336,4928.14 413.629,4184.66 514.922,3441.18 1147.77,2913.46 1827.15,3005.96"
             style="fill:#f19a16;fill-opacity:1;fill-rule:evenodd;stroke:none"
             id="path267" />
          <path
             d="M 1825.85,3015.5 C 1151.29,2923.66 522.926,3447.64 422.352,4185.85 321.777,4924.05 787.082,5596.94 1461.64,5688.78 2136.2,5780.62 2764.56,5256.64 2865.13,4518.44 2965.71,3780.23 2500.41,3107.35 1825.85,3015.5 Z m 3.9,-28.64 C 2518.76,3080.67 2994.04,3767.98 2891.31,4522 2788.58,5276.02 2146.74,5811.23 1457.73,5717.42 768.723,5623.61 293.445,4936.31 396.176,4182.29 498.906,3428.26 1140.74,2893.05 1829.75,2986.86"
             style="fill:#f09917;fill-opacity:1;fill-rule:evenodd;stroke:none"
             id="path269" />
          <path
             d="M 1828.45,2996.41 C 1144.26,2903.26 506.914,3434.72 404.902,4183.47 302.891,4932.22 774.84,5614.72 1459.04,5707.88 c 684.19,93.15 1321.53,-438.32 1423.55,-1187.07 102,-748.75 -369.95,-1431.25 -1054.14,-1524.4 z m 3.9,-28.64 C 2531,3062.89 3012.93,3759.8 2908.76,4524.38 2804.59,5288.95 2153.78,5831.64 1455.13,5736.52 756.484,5641.4 274.563,4944.48 378.73,4179.91 482.895,3415.34 1133.71,2872.64 1832.35,2967.77"
             style="fill:#f09716;fill-opacity:1;fill-rule:evenodd;stroke:none"
             id="path271" />
          <path
             d="M 1831.05,2977.32 C 1137.23,2882.85 490.902,3421.8 387.457,4181.1 284.004,4940.39 762.605,5632.51 1456.43,5726.97 c 693.83,94.47 1340.15,-444.49 1443.6,-1203.78 103.45,-759.3 -375.15,-1451.41 -1068.98,-1545.87 z m 3.91,-28.65 c 708.28,96.44 1196.85,802.97 1091.24,1578.08 -105.6,775.12 -765.38,1325.3 -1473.67,1228.86 C 744.246,5659.18 255.68,4952.65 361.281,4177.54 466.883,3402.42 1126.67,2852.24 1834.96,2948.67"
             style="fill:#f09616;fill-opacity:1;fill-rule:evenodd;stroke:none"
             id="path273" />
          <path
             d="M 1833.66,2958.22 C 1130.19,2862.44 474.891,3408.88 370.004,4178.72 265.121,4948.57 750.367,5650.29 1453.83,5746.06 2157.3,5841.84 2812.6,5295.41 2917.48,4525.56 3022.37,3755.72 2537.12,3054 1833.66,2958.22 Z m 3.89,-28.64 c 717.93,97.74 1213.14,813.88 1106.1,1599.55 -107.04,785.66 -775.8,1343.32 -1493.72,1245.58 C 732.008,5676.96 236.793,4960.82 343.832,4175.16 450.871,3389.5 1119.64,2831.83 1837.55,2929.58"
             style="fill:#f09516;fill-opacity:1;fill-rule:evenodd;stroke:none"
             id="path275" />
          <path
             d="m 1836.26,2939.13 c -713.11,-97.09 -1377.381,456.83 -1483.701,1237.22 -106.325,780.38 385.57,1491.72 1098.671,1588.81 713.1,97.09 1377.38,-456.83 1483.7,-1237.22 106.32,-780.39 -385.57,-1491.73 -1098.67,-1588.81 z m 3.9,-28.65 C 2567.71,3009.54 3069.58,3735.3 2961.1,4531.5 2852.63,5327.71 2174.89,5892.86 1447.33,5793.8 719.773,5694.75 217.906,4968.99 326.387,4172.78 434.863,3376.57 1112.6,2811.43 1840.16,2910.48"
             style="fill:#f09417;fill-opacity:1;fill-rule:evenodd;stroke:none"
             id="path277" />
          <path
             d="M 1838.86,2920.03 C 1116.12,2821.63 442.867,3383.04 335.109,4173.97 227.348,4964.9 725.891,5685.86 1448.63,5784.26 2171.37,5882.66 2844.62,5321.25 2952.38,4530.32 3060.14,3739.38 2561.6,3018.43 1838.86,2920.03 Z m 3.9,-28.64 c 737.19,100.37 1245.7,835.74 1135.79,1642.49 C 2868.64,5340.63 2181.92,5913.27 1444.73,5812.9 707.531,5712.53 199.023,4977.16 308.934,4170.41 418.848,3363.66 1105.57,2791.02 1842.76,2891.39"
             style="fill:#f19217;fill-opacity:1;fill-rule:evenodd;stroke:none"
             id="path279" />
          <path
             d="m 1841.46,2900.94 c -732.38,-99.72 -1414.605,469.17 -1523.8,1270.65 -109.195,801.49 395.992,1532.05 1128.37,1631.76 732.37,99.71 1414.6,-469.18 1523.79,-1270.66 109.2,-801.48 -395.98,-1532.04 -1128.36,-1631.75 z m 3.9,-28.65 C 2592.19,2973.97 3107.35,3718.96 2996,4536.25 2884.65,5353.55 2188.95,5933.67 1442.13,5831.99 695.293,5730.31 180.137,4985.33 291.488,4168.03 402.84,3350.73 1098.53,2770.61 1845.36,2872.29"
             style="fill:#f19117;fill-opacity:1;fill-rule:evenodd;stroke:none"
             id="path281" />
          <path
             d="M 1844.06,2881.84 C 1102.05,2780.82 410.844,3357.2 300.211,4169.22 189.578,4981.25 701.414,5721.42 1443.43,5822.45 2185.44,5923.47 2876.64,5347.09 2987.27,4535.07 3097.91,3723.04 2586.07,2982.87 1844.06,2881.84 Z m 3.9,-28.64 c 756.47,102.99 1278.27,857.59 1165.49,1685.43 C 2900.66,5366.47 2195.99,5954.08 1439.52,5851.09 683.059,5748.09 161.25,4993.5 274.039,4165.66 386.824,3337.81 1091.5,2750.2 1847.96,2853.2"
             style="fill:#f19017;fill-opacity:1;fill-rule:evenodd;stroke:none"
             id="path283" />
          <path
             d="M 1846.66,2862.75 C 1095.02,2760.41 394.832,3344.27 282.762,4166.84 170.695,4989.41 689.176,5739.2 1440.82,5841.54 2192.47,5943.88 2892.65,5360.02 3004.72,4537.44 3116.79,3714.87 2598.31,2965.08 1846.66,2862.75 Z m 3.9,-28.64 C 2616.66,2938.41 3145.12,3702.62 3030.89,4541 2916.67,5379.39 2203.03,5974.49 1436.92,5870.18 670.816,5765.88 142.367,5001.67 256.59,4163.28 370.816,3324.89 1084.46,2729.8 1850.56,2834.11"
             style="fill:#f18f17;fill-opacity:1;fill-rule:evenodd;stroke:none"
             id="path285" />
          <path
             d="M 1849.26,2843.65 C 1087.98,2740 378.82,3331.35 265.316,4164.47 151.809,4997.59 676.938,5756.99 1438.22,5860.64 2199.51,5964.29 2908.66,5372.93 3022.17,4539.82 3135.68,3706.7 2610.55,2947.3 1849.26,2843.65 Z m 3.9,-28.64 C 2628.91,2920.63 3164,3694.45 3048.34,4543.38 2932.68,5392.32 2210.06,5994.89 1434.32,5889.28 658.582,5783.66 123.48,5009.84 239.141,4160.91 354.805,3311.97 1077.43,2709.39 1853.16,2815.01"
             style="fill:#f18d17;fill-opacity:1;fill-rule:evenodd;stroke:none"
             id="path287" />
          <path
             d="M 1851.86,2824.55 C 1080.94,2719.59 362.809,3318.43 247.867,4162.09 132.926,5005.76 664.699,5774.77 1435.62,5879.73 2206.54,5984.69 2924.68,5385.86 3039.62,4542.2 3154.56,3698.53 2622.79,2929.52 1851.86,2824.55 Z m 3.91,-28.64 c 785.37,106.93 1327.12,890.36 1210.02,1749.85 C 2948.7,5405.24 2217.09,6015.3 1431.72,5908.37 646.344,5801.44 104.594,5018.01 221.695,4158.53 338.789,3299.05 1070.39,2688.98 1855.77,2795.91"
             style="fill:#f08c17;fill-opacity:1;fill-rule:evenodd;stroke:none"
             id="path289" />
          <path
             d="M 1854.46,2805.46 C 1073.91,2699.19 346.797,3305.51 230.418,4159.72 114.039,5013.93 652.461,5792.55 1433.02,5898.82 2213.58,6005.1 2940.69,5398.78 3057.07,4544.57 3173.45,3690.36 2635.02,2911.73 1854.46,2805.46 Z m 3.91,-28.64 c 795.01,108.24 1343.41,901.29 1224.87,1771.31 C 2964.71,5418.16 2224.13,6035.71 1429.12,5927.47 634.102,5819.22 85.7109,5026.18 204.246,4156.15 322.781,3286.13 1063.36,2668.58 1858.37,2776.82"
             style="fill:#f08b17;fill-opacity:1;fill-rule:evenodd;stroke:none"
             id="path291" />
          <path
             d="M 1857.07,2786.36 C 1066.88,2678.78 330.785,3292.59 212.969,4157.34 95.1523,5022.1 640.223,5810.34 1430.42,5917.92 2220.61,6025.5 2956.7,5411.7 3074.52,4546.95 3192.33,3682.19 2647.26,2893.95 1857.07,2786.36 Z m 3.9,-28.64 c 804.65,109.56 1359.69,912.21 1239.72,1792.79 -119.97,880.57 -869.53,1505.6 -1674.17,1396.05 C 621.867,5837.01 66.8242,5034.35 186.797,4153.78 306.766,3273.2 1056.32,2648.17 1860.97,2757.72"
             style="fill:#f18a17;fill-opacity:1;fill-rule:evenodd;stroke:none"
             id="path293" />
          <path
             d="M 1859.67,2767.27 C 1059.84,2658.38 314.773,3279.67 195.52,4154.96 76.2695,5030.27 627.984,5828.12 1427.82,5937.02 2227.65,6045.91 2972.71,5424.62 3091.96,4549.32 3211.22,3674.02 2659.5,2876.17 1859.67,2767.27 Z m 3.9,-28.64 C 2677.86,2849.5 3239.55,3661.76 3118.14,4552.88 2996.73,5444 2238.2,6076.52 1423.91,5965.66 609.629,5854.79 47.9414,5042.52 169.348,4151.4 290.758,3260.29 1049.29,2627.77 1863.57,2738.63"
             style="fill:#f18817;fill-opacity:1;fill-rule:evenodd;stroke:none"
             id="path295" />
          <path
             d="M 1862.27,2748.18 C 1052.8,2637.96 298.762,3266.74 178.07,4152.59 57.3828,5038.44 615.746,5845.9 1425.21,5956.11 2234.68,6066.32 2988.72,5437.54 3109.41,4551.7 3230.1,3665.85 2671.74,2858.39 1862.27,2748.18 Z m 3.9,-28.64 c 823.92,112.17 1392.26,934.05 1269.42,1835.72 C 3012.74,5456.92 2245.23,6096.93 1421.31,5984.75 597.391,5872.57 29.0547,5050.69 151.898,4149.03 274.742,3247.36 1042.25,2607.36 1866.17,2719.54"
             style="fill:#f18717;fill-opacity:1;fill-rule:evenodd;stroke:none"
             id="path297" />
          <path
             d="M 1864.87,2729.08 C 1045.77,2617.56 282.75,3253.82 160.625,4150.21 38.4961,5046.61 603.508,5863.68 1422.61,5975.2 2241.72,6086.73 3004.73,5450.46 3126.86,4554.07 3248.99,3657.68 2683.98,2840.6 1864.87,2729.08 Z m 3.91,-28.64 c 833.56,113.49 1408.54,944.99 1284.26,1857.19 C 3028.75,5469.84 2252.27,6117.34 1418.71,6003.85 585.152,5890.36 10.168,5058.86 134.453,4146.65 258.734,3234.44 1035.22,2586.95 1868.78,2700.44"
             style="fill:#f18617;fill-opacity:1;fill-rule:evenodd;stroke:none"
             id="path299" />
          <path
             d="M 1867.48,2709.99 C 1038.73,2597.15 266.738,3240.9 143.176,4147.84 19.6133,5054.78 591.273,5881.46 1420.01,5994.3 2248.75,6107.13 3020.75,5463.39 3144.31,4556.45 3267.88,3649.51 2696.21,2822.82 1867.48,2709.99 Z m 3.9,-28.65 c 843.19,114.81 1424.82,955.91 1299.1,1878.67 C 3044.77,5482.77 2259.3,6137.74 1416.11,6022.94 572.914,5908.14 -8.71484,5067.03 117,4144.28 242.723,3221.52 1028.18,2566.54 1871.38,2681.34"
             style="fill:#f18517;fill-opacity:1;fill-rule:evenodd;stroke:none"
             id="path301" />
          <path
             d="M 1870.07,2690.89 C 1031.7,2576.75 250.727,3227.98 125.727,4145.46 0.726563,5062.95 579.031,5899.25 1417.41,6013.39 2255.79,6127.54 3036.76,5476.3 3161.76,4558.82 3286.76,3641.34 2708.45,2805.04 1870.07,2690.89 Z m 3.91,-28.64 c 852.83,116.11 1441.11,966.83 1313.95,1900.13 C 3060.78,5495.69 2266.34,6158.15 1413.51,6042.04 560.676,5925.92 -27.6016,5075.2 99.5547,4141.9 226.707,3208.6 1021.14,2546.14 1873.98,2662.25"
             style="fill:#f18317;fill-opacity:1;fill-rule:evenodd;stroke:none"
             id="path303" />
          <path
             d="M 1872.68,2671.8 C 1024.66,2556.34 234.715,3215.06 108.281,4143.09 -18.1563,5071.12 566.793,5917.03 1414.81,6032.49 2262.82,6147.95 3052.77,5489.23 3179.21,4561.2 3305.64,3633.17 2720.69,2787.25 1872.68,2671.8 Z m 3.9,-28.64 c 862.47,117.42 1457.39,977.75 1328.8,1921.6 -128.59,943.85 -932,1613.79 -1794.47,1496.37 C 548.438,5943.7 -46.4883,5083.37 82.1055,4139.52 210.699,3195.68 1014.11,2525.73 1876.58,2643.16"
             style="fill:#f18317;fill-opacity:1;fill-rule:evenodd;stroke:none"
             id="path305" />
          <path
             d="M 1875.28,2652.7 C 1017.63,2535.93 218.703,3202.14 90.8281,4140.71 -37.043,5079.29 554.559,5934.81 1412.21,6051.58 2269.86,6168.35 3068.79,5502.15 3196.66,4563.57 3324.53,3625 2732.93,2769.47 1875.28,2652.7 Z m 3.9,-28.64 C 2751.29,2742.8 3352.86,3612.74 3222.83,4567.14 3092.8,5521.53 2280.41,6198.96 1408.3,6080.22 536.199,5961.48 -65.3711,5091.54 64.6563,4137.15 194.684,3182.76 1007.07,2505.32 1879.18,2624.06"
             style="fill:#f18117;fill-opacity:1;fill-rule:evenodd;stroke:none"
             id="path307" />
          <path
             d="M 1877.88,2633.61 C 1010.59,2515.53 202.691,3189.21 73.3828,4138.34 -55.9297,5087.46 542.32,5952.6 1409.61,6070.68 2276.89,6188.76 3084.79,5515.07 3214.11,4565.95 3343.41,3616.83 2745.17,2751.69 1877.88,2633.61 Z m 3.9,-28.65 c 881.74,120.06 1489.96,999.61 1358.5,1964.55 C 3108.81,5534.45 2287.45,6219.37 1405.7,6099.32 523.965,5979.27 -84.2539,5099.71 47.2109,4134.77 178.676,3169.83 1000.04,2484.91 1881.78,2604.96"
             style="fill:#f18017;fill-opacity:1;fill-rule:evenodd;stroke:none"
             id="path309" />
          <path
             d="M 1880.48,2614.51 C 1003.56,2495.12 186.68,3176.29 55.9336,4135.96 -74.8125,5095.63 530.082,5970.38 1407,6089.77 2283.93,6209.17 3100.8,5527.99 3231.55,4568.32 3362.3,3608.66 2757.41,2733.91 1880.48,2614.51 Z m 3.9,-28.64 C 2775.76,2707.23 3390.63,3596.4 3257.73,4571.89 3124.82,5547.37 2294.48,6239.78 1403.1,6118.41 511.723,5997.05 -103.145,5107.88 29.7578,4132.4 162.66,3156.91 993.008,2464.51 1884.38,2585.87"
             style="fill:#f17e18;fill-opacity:1;fill-rule:evenodd;stroke:none"
             id="path311" />
          <path
             d="M 1883.08,2595.42 C 996.523,2474.71 170.668,3163.38 38.4844,4133.59 -93.6992,5103.8 517.844,5988.16 1404.4,6108.87 2290.96,6229.57 3116.82,5540.91 3249,4570.7 3381.18,3600.49 2769.64,2716.12 1883.08,2595.42 Z m 3.9,-28.64 C 2788,2689.45 3409.52,3588.23 3275.18,4574.27 3140.84,5560.29 2301.52,6260.18 1400.5,6137.51 499.484,6014.84 -122.027,5116.05 12.3125,4130.02 146.652,3143.99 985.973,2444.1 1886.98,2566.78"
             style="fill:#f17e18;fill-opacity:1;fill-rule:evenodd;stroke:none"
             id="path313" />
          <path
             d="M 1885.68,2576.32 C 989.488,2454.3 154.656,3150.45 21.0391,4131.21 -112.586,5111.97 505.605,6005.95 1401.8,6127.96 2298,6249.98 3132.83,5553.83 3266.45,4573.08 3400.07,3592.32 2781.88,2698.34 1885.68,2576.32 Z m 3.91,-28.64 C 2800.24,2671.67 3428.4,3580.06 3292.62,4576.64 3156.85,5573.21 2308.55,6280.59 1397.9,6156.6 487.25,6032.62 -140.91,5124.22 -5.13672,4127.64 130.641,3131.07 978.934,2423.7 1889.59,2547.68"
             style="fill:#f17c18;fill-opacity:1;fill-rule:evenodd;stroke:none"
             id="path315" />
          <path
             d="M 1888.29,2557.23 C 982.453,2433.9 138.645,3137.53 3.58594,4128.83 -131.469,5120.14 493.367,6023.73 1399.2,6147.05 2305.04,6270.39 3148.84,5566.76 3283.9,4575.45 3418.96,3584.15 2794.12,2680.56 1888.29,2557.23 Z m 3.9,-28.64 c 920.29,125.3 1555.09,1043.3 1417.88,2050.43 C 3172.86,5586.14 2315.58,6301 1395.3,6175.7 475.008,6050.4 -159.797,5132.39 -22.5859,4125.27 114.629,3118.15 971.898,2403.29 1892.19,2528.59"
             style="fill:#f17b17;fill-opacity:1;fill-rule:evenodd;stroke:none"
             id="path317" />
          <path
             d="M 1890.89,2538.13 C 975.418,2413.49 122.633,3124.61 -13.8594,4126.46 -150.355,5128.31 481.129,6041.51 1396.6,6166.15 2312.07,6290.79 3164.85,5579.68 3301.35,4577.83 3437.84,3575.98 2806.36,2662.77 1890.89,2538.13 Z m 3.9,-28.64 C 2824.71,2636.1 3466.17,3563.72 3327.52,4581.39 3188.87,5599.06 2322.62,6321.4 1392.7,6194.79 462.773,6068.18 -178.684,5140.57 -40.0313,4122.89 98.6172,3105.23 964.867,2382.88 1894.79,2509.49"
             style="fill:#f17a18;fill-opacity:1;fill-rule:evenodd;stroke:none"
             id="path319" />
          <path
             d="M 1893.49,2519.04 C 968.383,2393.08 106.621,3111.69 -31.3086,4124.08 -169.242,5136.48 468.891,6059.29 1394,6185.25 2319.1,6311.2 3180.87,5592.6 3318.8,4580.2 3456.73,3567.8 2818.59,2644.99 1893.49,2519.04 Z m 3.9,-28.64 C 2836.95,2618.32 3485.05,3555.55 3344.97,4583.77 3204.88,5611.98 2329.66,6341.81 1390.09,6213.89 450.535,6085.96 -197.566,5148.73 -57.4805,4120.52 82.6016,3092.3 957.832,2362.48 1897.39,2490.4"
             style="fill:#f17918;fill-opacity:1;fill-rule:evenodd;stroke:none"
             id="path321" />
          <path
             d="M 1896.09,2499.95 C 961.348,2372.68 90.6094,3098.77 -48.7578,4121.71 -188.125,5144.65 456.652,6077.07 1391.39,6204.34 2326.14,6331.61 3196.88,5605.52 3336.24,4582.58 3475.61,3559.64 2830.83,2627.21 1896.09,2499.95 Z m 3.9,-28.65 c 949.2,129.24 1603.95,1076.08 1462.42,2114.84 C 3220.89,5624.9 2336.69,6362.22 1387.49,6232.98 438.293,6103.75 -216.453,5156.9 -74.9297,4118.14 66.5938,3079.39 950.797,2342.07 1899.99,2471.3"
             style="fill:#f17718;fill-opacity:1;fill-rule:evenodd;stroke:none"
             id="path323" />
          <path
             d="M 1898.69,2480.85 C 954.313,2352.27 74.5977,3085.84 -66.207,4119.33 -207.012,5152.82 444.414,6094.86 1388.79,6223.44 c 944.38,128.58 1824.1,-605 1964.9,-1638.49 140.81,-1033.48 -510.62,-1975.52 -1455,-2104.1 z m 3.9,-28.64 c 958.84,130.54 1620.23,1087 1477.28,2136.31 C 3236.91,5637.82 2343.72,6382.63 1384.89,6252.08 426.059,6121.53 -235.34,5165.07 -92.3789,4115.77 50.582,3066.46 943.762,2321.66 1902.59,2452.21"
             style="fill:#f17618;fill-opacity:1;fill-rule:evenodd;stroke:none"
             id="path325" />
          <path
             d="M 1901.3,2461.75 C 947.277,2331.86 58.5898,3072.92 -83.6563,4116.96 -225.898,5160.99 432.176,6112.64 1386.19,6242.53 2340.21,6372.42 3228.9,5631.36 3371.14,4587.33 3513.38,3543.3 2855.31,2591.64 1901.3,2461.75 Z m 3.9,-28.64 C 2873.67,2564.97 3541.71,3531.04 3397.31,4590.89 3252.92,5650.74 2350.76,6403.03 1382.29,6271.18 413.82,6139.32 -254.223,5173.25 -109.828,4113.39 34.5703,3053.54 936.727,2301.25 1905.2,2433.11"
             style="fill:#f17518;fill-opacity:1;fill-rule:evenodd;stroke:none"
             id="path327" />
          <path
             d="M 1903.89,2442.66 C 940.242,2311.46 42.5742,3060 -101.102,4114.58 c -143.679,1054.58 521.04,2015.85 1484.692,2147.05 963.65,131.2 1861.32,-617.34 2005,-1671.92 143.68,-1054.58 -521.04,-2015.85 -1484.7,-2147.05 z m 3.91,-28.64 c 978.1,133.17 1652.79,1108.85 1506.96,2179.25 -145.83,1070.4 -1056.97,1830.17 -2035.07,1697 C 401.582,6157.1 -273.109,5181.41 -127.277,4111.02 18.5586,3040.62 929.691,2280.85 1907.8,2414.02"
             style="fill:#f17418;fill-opacity:1;fill-rule:evenodd;stroke:none"
             id="path329" />
          <path
             d="M 1906.5,2423.57 C 933.211,2291.05 26.5625,3047.08 -118.551,4112.21 c -145.113,1065.12 526.25,2036 1499.541,2168.51 973.29,132.51 1879.93,-623.52 2025.05,-1688.64 145.11,-1065.12 -526.25,-2036 -1499.54,-2168.51 z m 3.9,-28.65 C 2898.14,2529.41 3579.48,3514.7 3432.21,4595.64 3284.94,5676.59 2364.83,6443.85 1377.09,6309.36 389.344,6174.88 -291.996,5189.58 -144.723,4108.64 2.54688,3027.7 922.656,2260.44 1910.4,2394.92"
             style="fill:#f17218;fill-opacity:1;fill-rule:evenodd;stroke:none"
             id="path331" />
          <path
             d="M 1909.1,2404.47 C 926.176,2270.64 10.5508,3034.16 -136,4109.83 -282.555,5185.5 395.465,6165.99 1378.39,6299.82 2361.31,6433.64 3276.93,5670.13 3423.48,4594.46 3570.04,3518.79 2892.02,2538.3 1909.1,2404.47 Z m 3.9,-28.65 c 997.38,135.81 1685.37,1130.71 1536.66,2222.2 C 3300.95,5689.51 2371.87,6464.25 1374.48,6328.46 377.105,6192.66 -310.879,5197.75 -162.172,4106.27 -13.4648,3014.78 915.621,2240.03 1913,2375.82"
             style="fill:#f17118;fill-opacity:1;fill-rule:evenodd;stroke:none"
             id="path333" />
          <path
             d="M 1911.7,2385.38 C 919.137,2250.24 -5.46094,3021.24 -153.449,4107.45 -301.438,5193.67 383.227,6183.77 1375.79,6318.91 2368.35,6454.05 3292.95,5683.05 3440.93,4596.83 3588.93,3510.62 2904.26,2520.51 1911.7,2385.38 Z m 3.9,-28.65 C 2922.62,2493.84 3617.25,3498.36 3467.11,4600.39 3316.96,5702.43 2378.9,6484.66 1371.89,6347.55 364.867,6210.45 -329.766,5205.93 -179.621,4103.89 -29.4805,3001.86 908.586,2219.63 1915.6,2356.73"
             style="fill:#f27018;fill-opacity:1;fill-rule:evenodd;stroke:none"
             id="path335" />
          <path
             d="M 1914.3,2366.28 C 912.102,2229.83 -21.4727,3008.32 -170.895,4105.08 -320.32,5201.84 370.984,6201.55 1373.18,6338.01 2375.38,6474.45 3308.96,5695.97 3458.38,4599.21 3607.81,3502.45 2916.5,2502.73 1914.3,2366.28 Z m 3.9,-28.64 C 2934.86,2476.06 3636.14,3490.19 3484.55,4602.77 3332.98,5715.35 2385.93,6505.07 1369.28,6366.65 352.629,6228.23 -348.652,5214.09 -197.07,4101.51 -45.4883,2988.93 901.551,2199.22 1918.2,2337.64"
             style="fill:#f26f18;fill-opacity:1;fill-rule:evenodd;stroke:none"
             id="path337" />
          <path
             d="M 1916.9,2347.18 C 905.066,2209.43 -37.4844,2995.39 -188.348,4102.7 -339.207,5210.01 358.75,6219.34 1370.59,6357.1 2382.42,6494.86 3324.97,5708.89 3475.83,4601.59 3626.69,3494.28 2928.74,2484.95 1916.9,2347.18 Z m 3.9,-28.64 C 2947.09,2458.27 3655.02,3482.02 3502,4605.15 3348.98,5728.27 2392.97,6525.47 1366.68,6385.74 340.391,6246.02 -367.535,5222.27 -214.52,4099.14 -61.5,2976.01 894.516,2178.81 1920.8,2318.54"
             style="fill:#f16d19;fill-opacity:1;fill-rule:evenodd;stroke:none"
             id="path339" />
          <path
             d="M 1919.5,2328.09 C 898.035,2189.02 -53.4922,2982.48 -205.793,4100.32 -358.094,5218.18 346.512,6237.12 1367.98,6376.2 c 1021.47,139.07 1973,-654.39 2125.3,-1772.24 152.3,-1117.85 -552.3,-2136.8 -1573.78,-2275.87 z m 3.91,-28.64 c 1035.92,141.04 1750.5,1174.4 1596.04,2308.07 C 3365,5741.2 2400,6545.88 1364.08,6404.84 328.156,6263.8 -386.422,5230.43 -231.965,4096.76 -77.5117,2963.09 887.48,2158.41 1923.41,2299.45"
             style="fill:#f16c19;fill-opacity:1;fill-rule:evenodd;stroke:none"
             id="path341" />
          <path
             d="M 1922.11,2309 C 891,2168.61 -69.5078,2969.55 -223.242,4097.95 -376.977,5226.35 334.273,6254.9 1365.38,6395.29 2396.49,6535.68 3356.99,5734.73 3510.73,4606.34 3664.46,3477.94 2953.21,2449.38 1922.11,2309 Z m 3.9,-28.65 C 2971.57,2422.71 3692.79,3465.68 3536.9,4609.9 3381.01,5754.11 2407.04,6566.29 1361.48,6423.93 315.914,6281.58 -405.305,5238.61 -249.418,4094.39 -93.5234,2950.17 880.445,2138 1926.01,2280.35"
             style="fill:#f16b19;fill-opacity:1;fill-rule:evenodd;stroke:none"
             id="path343" />
          <path
             d="M 1924.71,2289.9 C 883.965,2148.2 -85.5195,2956.63 -240.691,4095.57 -395.863,5234.52 322.035,6272.69 1362.78,6414.39 2403.52,6556.09 3373,5747.66 3528.18,4608.71 3683.35,3469.77 2965.45,2431.6 1924.71,2289.9 Z m 3.9,-28.64 C 2983.81,2404.93 3711.68,3457.51 3554.35,4612.27 3397.02,5767.04 2414.07,6586.69 1358.88,6443.03 303.676,6299.36 -424.191,5246.78 -266.863,4092.01 -109.535,2937.25 873.41,2117.59 1928.61,2261.26"
             style="fill:#f16a19;fill-opacity:1;fill-rule:evenodd;stroke:none"
             id="path345" />
          <path
             d="M 1927.31,2270.8 C 876.926,2127.8 -101.531,2943.71 -258.137,4093.2 -414.75,5242.69 309.797,6290.47 1360.18,6433.48 2410.55,6576.49 3389.02,5760.57 3545.63,4611.09 3702.23,3461.59 2977.69,2413.82 1927.31,2270.8 Z m 3.9,-28.64 C 2996.05,2387.14 3730.56,3449.34 3571.8,4614.65 3413.04,5779.96 2421.11,6607.1 1356.27,6462.12 291.441,6317.14 -443.074,5254.95 -284.313,4089.64 -125.547,2924.33 866.379,2097.19 1931.21,2242.16"
             style="fill:#f16819;fill-opacity:1;fill-rule:evenodd;stroke:none"
             id="path347" />
          <path
             d="M 1929.91,2251.71 C 869.895,2107.39 -117.543,2930.79 -275.59,4090.82 -433.633,5250.86 297.559,6308.25 1357.57,6452.57 2417.59,6596.9 3405.03,5773.5 3563.07,4613.46 3721.12,3453.43 2989.93,2396.04 1929.91,2251.71 Z m 3.9,-28.64 C 3008.29,2369.36 3749.45,3441.17 3589.25,4617.02 3429.04,5792.88 2428.14,6627.51 1353.67,6481.21 279.199,6334.93 -461.961,5263.12 -301.762,4087.26 -141.563,2911.41 859.34,2076.78 1933.81,2223.07"
             style="fill:#f26719;fill-opacity:1;fill-rule:evenodd;stroke:none"
             id="path349" />
          <path
             d="M 1932.51,2232.62 C 862.859,2086.98 -133.555,2917.87 -293.035,4088.45 -452.52,5259.03 285.32,6326.04 1354.97,6471.67 2424.63,6617.3 3421.04,5786.42 3580.52,4615.84 3740,3445.26 3002.17,2378.25 1932.51,2232.62 Z m 3.9,-28.65 C 3020.52,2351.58 3768.33,3433 3606.7,4619.4 3445.06,5805.8 2435.18,6647.91 1351.07,6500.31 266.961,6352.71 -480.848,5271.29 -319.207,4084.89 -157.57,2898.48 852.305,2056.37 1936.41,2203.97"
             style="fill:#f26619;fill-opacity:1;fill-rule:evenodd;stroke:none"
             id="path351" />
          <path
             d="M 1935.11,2213.52 C 855.824,2066.57 -149.566,2904.95 -310.484,4086.07 -471.402,5267.2 273.082,6343.82 1352.37,6490.76 2431.66,6637.71 3437.05,5799.34 3597.97,4618.21 3758.89,3437.09 3014.4,2360.47 1935.11,2213.52 Z m 3.91,-28.64 c 1093.74,148.91 1848.2,1239.95 1685.12,2436.9 C 3461.07,5818.72 2442.21,6668.32 1348.47,6519.41 254.727,6370.49 -499.73,5279.46 -336.656,4082.51 -173.582,2885.56 845.27,2035.96 1939.02,2184.88"
             style="fill:#f26519;fill-opacity:1;fill-rule:evenodd;stroke:none"
             id="path353" />
          <path
             d="M 1937.71,2194.43 C 848.789,2046.17 -165.574,2892.02 -327.934,4083.7 -490.289,5275.37 260.844,6361.6 1349.77,6509.86 2438.7,6658.12 3453.06,5812.26 3615.42,4620.59 3777.78,3428.91 3026.64,2342.68 1937.71,2194.43 Z m 3.91,-28.64 C 3045,2316.01 3806.1,3416.66 3641.59,4624.15 3477.08,5831.64 2449.25,6688.73 1345.87,6538.5 242.484,6388.28 -518.617,5287.63 -354.105,4080.13 -189.594,2872.64 838.234,2015.56 1941.62,2165.79"
             style="fill:#f1631a;fill-opacity:1;fill-rule:evenodd;stroke:none"
             id="path355" />
          <path
             d="M 1940.32,2175.33 C 841.754,2025.76 -181.59,2879.11 -345.379,4081.32 -509.176,5283.54 248.605,6379.38 1347.17,6528.95 2445.73,6678.52 3469.07,5825.18 3632.87,4622.96 3796.66,3420.75 3038.88,2324.9 1940.32,2175.33 Z m 3.9,-28.64 C 3057.24,2298.23 3824.99,3408.49 3659.04,4626.53 3493.09,5844.57 2456.29,6709.14 1343.27,6557.59 230.25,6406.06 -537.504,5295.8 -371.555,4077.76 -205.605,2859.72 831.203,1995.15 1944.22,2146.69"
             style="fill:#f1621a;fill-opacity:1;fill-rule:evenodd;stroke:none"
             id="path357" />
          <path
             d="M 1942.92,2156.24 C 834.719,2005.36 -197.598,2866.18 -362.832,4078.95 -528.059,5291.71 236.367,6397.17 1344.57,6548.05 2452.77,6698.93 3485.09,5838.11 3650.32,4625.34 3815.55,3412.57 3051.12,2307.12 1942.92,2156.24 Z m 3.9,-28.65 C 3069.48,2280.45 3843.88,3400.32 3676.49,4628.9 3509.1,5857.48 2463.32,6729.54 1340.66,6576.69 218.012,6423.84 -556.387,5303.97 -389.004,4075.38 -221.617,2846.8 824.168,1974.74 1946.82,2127.59"
             style="fill:#f1611a;fill-opacity:1;fill-rule:evenodd;stroke:none"
             id="path359" />
          <path
             d="M 1945.52,2137.14 C 827.684,1984.95 -213.613,2853.26 -380.277,4076.57 -546.945,5299.88 224.133,6414.95 1341.96,6567.14 2459.8,6719.34 3501.1,5851.03 3667.77,4627.71 3834.43,3404.4 3063.36,2289.34 1945.52,2137.14 Z m 3.9,-28.64 C 3081.71,2262.66 3862.76,3392.15 3693.94,4631.28 3525.12,5870.41 2470.36,6749.95 1338.07,6595.79 205.773,6441.63 -575.273,5312.14 -406.449,4073.01 -237.629,2833.88 817.129,1954.34 1949.42,2108.5"
             style="fill:#f16019;fill-opacity:1;fill-rule:evenodd;stroke:none"
             id="path361" />
          <path
             d="M 1948.12,2118.05 C 820.648,1964.54 -229.625,2840.34 -397.727,4074.2 -565.832,5308.05 211.891,6432.73 1339.37,6586.24 2466.84,6739.75 3517.11,5863.95 3685.21,4630.09 3853.32,3396.23 3075.59,2271.55 1948.12,2118.05 Z m 3.9,-28.64 C 3093.95,2244.88 3881.64,3383.98 3711.39,4633.65 3541.13,5883.33 2477.39,6770.36 1335.46,6614.88 193.535,6459.41 -594.156,5320.3 -423.898,4070.63 -253.641,2820.96 810.094,1933.93 1952.02,2089.41"
             style="fill:#f25e1a;fill-opacity:1;fill-rule:evenodd;stroke:none"
             id="path363" />
          <path
             d="M 1950.72,2098.95 C 813.613,1944.14 -245.633,2827.42 -415.176,4071.82 -584.715,5316.22 199.652,6450.51 1336.77,6605.33 2473.88,6760.15 3533.12,5876.87 3702.66,4632.46 3872.2,3388.06 3087.83,2253.77 1950.72,2098.95 Z m 3.91,-28.64 c 1151.56,156.79 1945.9,1305.5 1774.2,2565.72 C 3557.14,5896.25 2484.43,6790.76 1332.86,6633.98 181.297,6477.19 -613.043,5328.48 -441.348,4068.25 -269.652,2808.03 803.063,1913.52 1954.63,2070.31"
             style="fill:#f25e1a;fill-opacity:1;fill-rule:evenodd;stroke:none"
             id="path365" />
          <path
             d="M 1953.32,2079.86 C 806.578,1923.73 -261.648,2814.5 -432.625,4069.45 -603.602,5324.39 187.418,6468.3 1334.16,6624.43 2480.91,6780.56 3549.13,5889.79 3720.11,4634.84 3891.09,3379.89 3100.07,2235.99 1953.32,2079.86 Z m 3.91,-28.65 c 1161.2,158.1 1962.18,1316.43 1789.06,2587.2 C 3573.15,5909.17 2491.46,6811.17 1330.26,6653.07 169.059,6494.97 -631.93,5336.65 -458.797,4065.88 -285.664,2795.11 796.027,1893.12 1957.23,2051.21"
             style="fill:#f25c1a;fill-opacity:1;fill-rule:evenodd;stroke:none"
             id="path367" />
          <path
             d="m 1955.93,2060.77 c -1156.387,-157.45 -2233.586,740.8 -2406,2006.3 -172.418,1265.49 625.246,2419.01 1781.63,2576.45 1156.38,157.44 2233.58,-740.81 2406,-2006.3 172.41,-1265.5 -625.25,-2419.01 -1781.63,-2576.45 z m 3.9,-28.65 C 3130.66,2191.53 3938.3,3359.47 3763.73,4640.78 3589.16,5922.09 2498.5,6831.57 1327.66,6672.17 156.82,6512.75 -650.813,5344.82 -476.246,4063.5 -301.676,2782.19 788.992,1872.71 1959.83,2032.12"
             style="fill:#f25b1a;fill-opacity:1;fill-rule:evenodd;stroke:none"
             id="path369" />
          <path
             d="M 1958.53,2041.67 C 792.508,1882.91 -293.672,2788.65 -467.52,4064.69 -641.371,5340.73 162.941,6503.86 1328.96,6662.62 2494.98,6821.37 3581.16,5915.63 3755.01,4639.59 3928.86,3363.55 3124.55,2200.42 1958.53,2041.67 Z m 3.9,-28.64 C 3142.9,2173.75 3957.18,3351.3 3781.18,4643.16 3605.18,5935.02 2505.53,6851.98 1325.06,6691.26 144.582,6530.54 -669.699,5352.99 -493.695,4061.13 -317.688,2769.27 781.957,1852.3 1962.43,2013.03"
             style="fill:#f1591a;fill-opacity:1;fill-rule:evenodd;stroke:none"
             id="path371" />
          <path
             d="M 1961.13,2022.57 C 785.473,1862.51 -309.68,2775.73 -484.969,4062.32 -660.254,5348.9 150.703,6521.64 1326.36,6681.71 2502.01,6841.78 3597.17,5928.55 3772.46,4641.97 3947.74,3355.38 3136.79,2182.64 1961.13,2022.57 Z m 3.9,-28.64 c 1190.11,162.03 2011.04,1349.2 1833.6,2651.61 C 3621.18,5947.94 2512.56,6872.39 1322.45,6710.36 132.344,6548.32 -688.586,5361.16 -511.141,4058.75 -333.699,2756.35 774.922,1831.9 1965.03,1993.93"
             style="fill:#f1591b;fill-opacity:1;fill-rule:evenodd;stroke:none"
             id="path373" />
          <path
             d="M 1963.73,2003.48 C 778.438,1842.1 -325.695,2762.81 -502.418,4059.94 -679.145,5357.07 138.461,6539.43 1323.75,6700.81 2509.05,6862.19 3613.18,5941.48 3789.9,4644.34 3966.63,3347.21 3149.02,2164.86 1963.73,2003.48 Z m 3.9,-28.64 C 3167.38,2138.18 3994.96,3334.96 3816.07,4647.91 3637.2,5960.86 2519.6,6892.79 1319.85,6729.45 120.105,6566.1 -707.469,5369.33 -528.59,4056.38 -349.711,2743.43 767.887,1811.49 1967.63,1974.84"
             style="fill:#f1571b;fill-opacity:1;fill-rule:evenodd;stroke:none"
             id="path375" />
          <path
             d="M 1966.33,1984.38 C 771.402,1821.69 -341.707,2749.89 -519.867,4057.57 -698.027,5365.24 126.227,6557.21 1321.15,6719.9 2516.08,6882.59 3629.19,5954.4 3807.35,4646.72 3985.51,3339.04 3161.26,2147.07 1966.33,1984.38 Z m 3.9,-28.64 C 3179.62,2120.4 4013.84,3326.79 3833.53,4650.29 3653.21,5973.78 2526.63,6913.2 1317.25,6748.55 107.867,6583.89 -726.355,5377.5 -546.039,4054 -365.723,2730.5 760.852,1791.08 1970.23,1955.74"
             style="fill:#f2561a;fill-opacity:1;fill-rule:evenodd;stroke:none"
             id="path377" />
          <path
             d="M 1968.93,1965.29 C 764.371,1801.29 -357.715,2736.96 -537.313,4055.19 -716.91,5373.41 113.988,6575 1318.55,6739 2523.12,6903 3645.2,5967.32 3824.8,4649.1 4004.4,3330.87 3173.5,2129.29 1968.93,1965.29 Z m 3.91,-28.65 C 3191.86,2102.62 4032.73,3318.62 3850.97,4652.66 3669.22,5986.7 2533.67,6933.61 1314.65,6767.64 95.6328,6601.67 -745.242,5385.67 -563.484,4051.63 -381.734,2717.59 753.816,1770.68 1972.84,1936.64"
             style="fill:#f2541b;fill-opacity:1;fill-rule:evenodd;stroke:none"
             id="path379" />
          <path
             d="M 1971.54,1946.2 C 757.332,1780.88 -373.73,2724.05 -554.766,4052.81 -735.797,5381.58 101.75,6592.78 1315.95,6758.09 2530.15,6923.41 3661.21,5980.24 3842.25,4651.47 4023.28,3322.7 3185.73,2111.51 1971.54,1946.2 Z m 3.9,-28.65 C 3204.09,2084.83 4051.61,3310.45 3868.42,4655.04 3685.23,5999.63 2540.71,6954.02 1312.05,6786.73 83.3906,6619.45 -764.125,5393.84 -580.938,4049.25 -397.746,2704.66 746.781,1750.27 1975.44,1917.55"
             style="fill:#f2541b;fill-opacity:1;fill-rule:evenodd;stroke:none"
             id="path381" />
          <path
             d="M 1974.14,1927.1 C 750.297,1760.47 -389.738,2711.13 -572.211,4050.44 -754.684,5389.75 89.5117,6610.56 1313.35,6777.19 2537.19,6943.81 3677.23,5993.16 3859.7,4653.85 4042.17,3314.54 3197.98,2093.73 1974.14,1927.1 Z m 2.6,-19.1 c 1233.47,167.95 2084.31,1398.36 1900.4,2748.22 -183.9,1349.86 -1332.92,2308 -2566.39,2140.06 C 77.2734,6628.34 -773.566,5397.93 -589.66,4048.06 -405.754,2698.2 743.262,1740.07 1976.74,1908"
             style="fill:#f2521b;fill-opacity:1;fill-rule:evenodd;stroke:none"
             id="path383" />
        </g>
      </g>
    </g>
  </g>
</svg>
